<mxfile host="app.diagrams.net" agent="Mozilla/5.0 (Windows NT 10.0; Win64; x64) AppleWebKit/537.36 (KHTML, like Gecko) Chrome/140.0.0.0 Safari/537.36" version="28.2.5">
  <diagram name="Page-1" id="S6bTiFra4baXJI56aN1_">
    <mxGraphModel dx="864" dy="475" grid="1" gridSize="10" guides="1" tooltips="1" connect="1" arrows="1" fold="1" page="1" pageScale="1" pageWidth="827" pageHeight="1169" math="0" shadow="0">
      <root>
        <mxCell id="0" />
        <mxCell id="1" parent="0" />
        <mxCell id="R56lCabFV1OtVi3enDo4-38" value="Core Services" style="swimlane;whiteSpace=wrap;html=1;" vertex="1" parent="1">
          <mxGeometry x="80" y="585" width="670" height="175" as="geometry" />
        </mxCell>
        <mxCell id="R56lCabFV1OtVi3enDo4-39" value="Notification Engine" style="html=1;verticalLabelPosition=bottom;align=center;labelBackgroundColor=#ffffff;verticalAlign=top;strokeWidth=2;strokeColor=#0080F0;shadow=0;dashed=0;shape=mxgraph.ios7.icons.bell;" vertex="1" parent="R56lCabFV1OtVi3enDo4-38">
          <mxGeometry x="88" y="95" width="24" height="23.099999999999998" as="geometry" />
        </mxCell>
        <mxCell id="R56lCabFV1OtVi3enDo4-45" value="Salesforce VPRMS" style="shape=image;verticalLabelPosition=bottom;verticalAlign=top;imageAspect=0;aspect=fixed;image=data:image/png,iVBORw0KGgoAAAANSUhEUgAAAQwAAAC8CAMAAAC672BgAAAAb1BMVEUAoeD///////4Ant8AnN8Amt4An9/7/v4dpeEAouC53/Tb7fjx+vyEyOzW6/fJ5vav2vKo1/Hk8/vu+PyUzu5lvOgyq+NrvumSze7I5vbB4vRUtubm9PtEsOWc0u87ruQAlNx4w+tcuOeGyeyk0u9R1S7YAAAQeUlEQVR4nO2d2YKiOhCGiVlARHAFGxSO2u//jCcbSyBBZFFa57/qcSAhH0WlsltgmOydH7hMcbDaD0zr7bL637raXi9LhFEhTMLj4ccb7+FerZ4wdtuElh5CYikiBCIcroNxn/Fl6gPjnIa4jqFKBCIY/Ukez8OIL20kpCBaHv6eC3kWxq+DHpLI7SM6T/LI0+k5GFvSEYUwDxw9Yx3nwP093Nfr++/W9d9iVs/AiLtaRQXHulPKu+01ZPUSlKI1k3W5x68m0h3GPsFPouA4rPhRwvHVwqjhhghDEp5Wg0r3pDrD2D5rFXmh8M1uSda/wiaIChHspK+zj44w7AT1QsEEibGedWkd/QgmRMdXmUc3GD559Myt5cEnbaqbZTdrgzh5DY5OMLZ9vEVVKGkm+ow7Jvj4io+lC4w1HoaCCoa1Jsuz7hjidJLyK+oAI+rvLkqRpfJqe7hjFO6mgpDrMYzbGCyYGy3jUTvpY2sQb6ckATrAOI7DgrVoc9tYLXu6Y3x8L4xRvhEhuBR+w+3vjmE4qR99AOM0HgtqGyFL8jDEHRMypeNoh7EZXo9UBZPBVRNB/ptg7MZlQWuE9D40SYKmC8DaYNjLgbFWU3BIJCtE0GRfShuM4/Ann0JltfRCGO7YH8lYIs7LYdiPezrfJahp6kwLI5rnR8KFzA0V227rPukJw5/rR8KFa1WKvXIP0SW0EGaCyyxZp/HT/dFGGNmMDUN1G3t3HULMRrRI/mHTvyBEmCSHp8ZvTDDiWRsGdRuyp3l1CDUdqFJsgA/dNp0rHxMMZ7beUwrTaGN/cB4PaBGEEncQjLkbBi3jxb91GNoT1yK47uJADDAus/YYXPCp/iGIO3Qr62GsZm8Yz4vg26M4Xg/jOn/D6CGCr+0xiB7GmL0YcxKEm6dhxJ8Kg8aul5aKVgvjNvd6dYAIMhuHDob9kR6jkLlbWQcj+NyvhAs6hqBDB+P+2ZbBQhR9k0UHI/tglyFEsNZxaGDYHxhxNaQdutXA8D/cZQjppkloYGy+AoaFD11grD/df0o1x7E1MD455FKE690cGhiz79cZTdh/CONrWFiEeA9geN/hP7lI9gDG/hvCjFxo3Q5j9KH3WQsHrTA+scvPLGLZrTC+yGdQweifZZSqfCjf7jOUkcovr02Y0NYM45viDC5CbCOML4pApeDBDON72ia5oG2EkXwdjHwi0Bf3Z5QilhHGl/R0VYVcE4zv6ANVBC8mGODbAg0qfDbBmMu4yQsfA55MMIaPqEG2n8TAFDBcEtxzMe3TEjH5JGOtcLuhGkADomvAeuRs//giGnxiqXZKwlDLQANTgSH9hBdML5tDBFMTjKGvA9msHL2LQS4SBdWrajZen0wyc2cYDAI9bhRM7suqeWRPNKdrGAzapGa3u7csSS8vq1HQz0Sz/QbBIJCzWGM2Afx1tSurXPUwdsNMYxAMuKYwXr+ogSQmGOmwNzIIBrXXF9YipaAexio0GgYh5ToG8686GLr7tOlhfnOtU0V/d9cn7HQ33utgpKYVyQQhJ8tCtilM+SMNFdEyDNmvxW0NGPSipeOQ2sR3mZ6DijUS9BfkMJex/49tCUfyuxG9Gyp3IxHjErbaprwdIujQZ1miyqoL3d06oaAJw7iHCsFJLHqE9m4kcRAEI3eX/1rsAlGDAeHdZ9csdqlTSRxlrhj39YK1mBVPwth1fzgMvl0gNw8I1wG/+7wJy9cUx3GQInyMz/be3wg7guTk2zLFQ0ja8tbB2DRgnE2L9gnbLEZGQhTZgT+8w/oBFsWvvjRuFQZeL/KLAPgtHCObnFrcCXh5RHMp/0l0QPL53vllsWy8iaaEb634fwHAFuCK/VuKFEWbQsk7bXXK8FCH4RsX9cB9UWqedErLimLltwWwBQ0FBneI5SWBfCIcqOmxh0eu8hvrp8fKT8AWq8UI/5Z2HijvJdBXruTrDZGSCfhpowGvNRiBcQMDUW62OFDgB8wMyRHIdyjfiRyOq8KQhab/Ly8R63roeyjTy6sPvpa5NAwfWTgGxT/F/zikgFFcGYl7yyvptUiXd9tSXXJTYQTGa0nIn/3XgdC5pbt83I3FsKs0ypzwcuKvSfQmV2BQy2d/7yKHONGZ/82nSUF+SRxCuExObAINe3iY0sYuLyJr9W6OhL4tbg/pJQwjX6SEqjCA5243P4R/dKK4URZmt1OwZXwOlbz3Zd4Gy7goMFoCHdqoY58GMxwaF+IsEL3G9OkdDPm6QYhW7BLemChhkCUQ9kk/P3ofLw/jKGwqyNNzNlv+iTPPzy45y8qEsIQWe4tWDvQqUTaWcw6DxqmI3sNLwj+skF3JHgaa8za/7wqMc0tPCv9KQNFSgHnlWtkRlIZweW4lDA6RfvzS71m8BBkRBlP2IpFiwwBBSbYU4b34IpmE1bPhTwmj3OpEOCY1OoG/+rxNMJwKjNY9EbgnerD3BeIPqMJAe/bXKS8qN2b2T2Fpmk9Y/MdB+htubMXiQZjxEl+ghFGaMiH83+rWJ9iQdxcYrWv0xCcJrprQha2mZUL/lQjyv+RDO0QKRvK98wbIAmxR3RqFCcoOFdFkK9eh47Msnky3iNmlb1ECTenmHFjPuwOMQ2tIQiJhl/tTbSUpwZfUp6+AhT5NGPwBFh5xllLs02bTYXI7t7eZmp4orwyikprt86qXlaeAnMPYNht3ApAH1bzN4yAVGI+mqOBzXuetGI/i8ZJKbbhowjgo9Z289IzLEIW6qt+sssEfNwY5lV8Uxy4fnydXsixjXPEVbxXb1udtnnBRcaCPRptJaBeRHAgu8gHZ3PyFohqMTe2/F/kDEbgro8VVlMc3MDcd/o9T7jDz8q3lDwJGOXkC+U1/gIx5G0qY5TAe77pEHL8S7IohSHTK4dsLoLOMvPZXxWscAqvhuC9bAdwY8gFO8W7PFRjC8psw8G4hK90KDNeYt76AiYTRZbYObaj9gCLQZ9+eNNZFeqFFs8Kk6TMEDM/nWuWS5ozCTdns8ESrg3f55VWusAxvkGUY8taoCMe77a7D2qixfH5W+4ns9kveXiYEaxwoDzN2/yFFRUzBtjDwZHo/qCyVnBQh64iKz0ilD2zA0PmM1rw1MO4CRvcJfjTaOooGEX1hoiK/Fa1TDYyr+tAavugimx/cayHWMQ5kxPOoNinTNdcm3ZdV0TQ4jKcWVRC8lnEhXCgvTgND1vWtg7e0ci6CBlHIfZ5kI87Iw6gGDGFDyugsyZTw9aFo/Wa1OpVK0hX7wqsFj80FjOJmDQz5pnUbwVWiLcxjQ97muPEmSxFk84+maHiLBggrXh2GjEBTxQTNeWuFdxxGh85Xkm3K/cZ4m4c+kyhz8dp1MKAYA7mUT5lTdcuNYkWgzAxANFmKb1/GqZnSNjkXbZPK5yfbJmUvHSnGX5Jm3loh3iHcZYEzTdi7YsTiXYJCGQuJF+dj0VCEmnBcthxZHM8bnuxYB46e2jVICfuNNdK83J6FUyhfDsxbrSwDnNY+pwoM2WrlrVi2bzmmjqaZd9by2tlqC6vbtCVmcsDeHB0Cl2teVLdoYOzv2dJyLte0GWfkDU960fZ6PF7vmzPgXzZ7yWzH8ZA+suhq4OGEiBfKYTTpCxZp4oRX0Z/BnX0DRhHReJv79XpwPebKNHmbu8nZJj4URochPN6w5gHMIq9a+YvcK3GNDkbRb1dcw15t3jRh4Zq8j9fuWI2ypTvJb2Z/2JWeLqWW4i3c8lIQEUPeptftMhheF/cZ+mrcLVIljlePxhsw+CJB5RIWbBO39uOWv/CsFnIWNPLLPFHPamAQqPZ3ci+szVsvNpHJ6ja5j+BoVYafwJMbC5NlXPmVVUzc+anzM1DiVy9apNwGLkH1R9FTIoJxtZWNI6/sF829uOgdt5ULCb7uy0YjOENj3toCshStrpMxIM5Sn49z2MG1EkQ6p3hHHYp39jfri+wBg6dfqiJfgsM04E3zs789yvJA5NwDvrGH7Z8s+RuPnQ7qA0MUxWfqNzz/UI58kDVVVHtyiJOtv7cX9i5I8/pLm7eueGsOo/Omn+yIH+g46oAa/1V07qAyK34URf0ihLCyvxhPb+ksyx9F9dQIAdnNbOCu2vFRz0F9mMqj6PNuiO+bYJ07x6si6c6Dnj3SE13mr5zlV2bNbNSa0f46skv5HQ/E4h4K42COQ14tEXIZfdyUEmuzrLoXep9k90jnltW4WXMYr5s11SI2iRYvz812+KvyF8tvrDkstaFxc+CKsO49q12wJ2G8Ie+6xL6vIhJ9i/uUa1vnAEN0AXEW79nRGu/mAwPm29/YIxwr0yf/fBezOcCw4OWwcTeH5OFpUdMIn+cEg43XotZoedLMr2BWMN4q6P2DkQv9gn8wpGAI/sHIVd3b3npHU2BGQtV93KzbfFqtb5C6HZP1mRtJdxSb6luFYR6j/wJhdZNU6wsXexeqbwpq2d8LA0WgBuMtPUuzUPMwIatlmuhnS+6MoML49I21DYJZgwUbeP5Ky9DYBYfxjZEGumlYMBjzPhdrEuGrjgWfxvRt9QkxHQnMYLylR/p9gpbplFM+9fGrnAZOjMffcBgzGm+dWgS1nJrNYdgjzzOYrQhO2k6YE3PHv8RrID7r6hGMr9jcEELzWZ4KjI+PNQiCh4dnl+YrkT47DCXI2XY4xrVYsPe5HwpB+PbzmEQVxmduKs3OKE02Xc/2Lde1bv8wDTElX/2Jz6cP1/ETpxxXln9f/2z9SpL4dAsJm+4phdEyu/4GnrngD2CA5K86UTHZxPZ2QRCzHVkC/9zr1Gtly4g/cEqrTkhz1lMvKTDseZ9ybVD18OsRYfxN28CPzqTtCwMc/5wX1R+WNwoMcDJuuzNPoetoLDSblsXvmlvVS82RoFFhAO/ydz6V6rybSWCw9Yx/xI/CsFc88RQMtob1L3wrMBuVhQEGALvbm2aoPiH9SNAEMCiO6OFGie8VXhuffXQY9GNJnfnyILC9P3NsGFSrQ4YbzeNXbu1rUuv57hPBoPJ+TjcH8dYx5K1jGEav2ifeJAhbRj+mhMFl74J4s9lu3MDfUw/eZcl4L3UawIH4+mRHxbgw6prINEhoPTyqAeLIcKz7YPWEMdHQAorBttVpEwTXU6HoDWOatr7cDfdqYd2idda5e6ufRDyq+sJo3YG2r1DeGvcPF7b2HRYbJFIOT3bu9lFfGF22IHlWapfVyj1ck8yhCi/RfeNPDIKpN4wJvAYeP4x6Tr1hVLbPGklkzK6JXuoPwxs7DkXTVRMd1R9G9+3AOrJ4NGFgeg2AAUZdt0M0M3ZfrSEw7BH3QKktg3mPhsAYs0bB3SYNTKtBMMYbuVfWzb1Nw2CA9Tgd6Y1lMO/RQBjjjMBpp/i/QUNhgNtwGnNhMRzGcBqzYTECjPL0hH4avcO/v0aAAU5D6hTD0o+3aAwYwO09HElGnFAwXKPAADunHw3orB4n/jqNAwOAPoOzBM8jvCg0FgzgPzimrCm0nEMIXtVoMABIn/IccLQ5euNpRBjAW3fGAcUetzPTmDAA2MtzA9tFILq+vVdLp3FhAGBvw/aRe3ZQWPqCnu4+GhsGEOcEIcOBpBAv76aFlO/XBDCozpvIwagu7Bx/R5vAOoWmgcHk+WxSe6nYn6HLVPU/Ni/ZZnAb/owAAAAASUVORK5CYII=;" vertex="1" parent="R56lCabFV1OtVi3enDo4-38">
          <mxGeometry x="530" y="62.5" width="71.28" height="50" as="geometry" />
        </mxCell>
        <mxCell id="R56lCabFV1OtVi3enDo4-14" value="Client Applications" style="swimlane;whiteSpace=wrap;html=1;" vertex="1" parent="1">
          <mxGeometry x="30" y="130" width="300" height="300" as="geometry" />
        </mxCell>
        <mxCell id="R56lCabFV1OtVi3enDo4-18" value="Web App" style="image;aspect=fixed;html=1;points=[];align=center;fontSize=12;image=img/lib/azure2/app_services/App_Service_Domains.svg;" vertex="1" parent="R56lCabFV1OtVi3enDo4-14">
          <mxGeometry x="116" y="200" width="68" height="55.00000000000001" as="geometry" />
        </mxCell>
        <mxCell id="R56lCabFV1OtVi3enDo4-15" value="Mobile App" style="html=1;verticalLabelPosition=bottom;align=center;labelBackgroundColor=#ffffff;verticalAlign=top;strokeWidth=2;strokeColor=#0080F0;shadow=0;dashed=0;shape=mxgraph.ios7.icons.smartphone;" vertex="1" parent="R56lCabFV1OtVi3enDo4-14">
          <mxGeometry x="50" y="36" width="18" height="30" as="geometry" />
        </mxCell>
        <mxCell id="R56lCabFV1OtVi3enDo4-21" style="edgeStyle=orthogonalEdgeStyle;rounded=0;orthogonalLoop=1;jettySize=auto;html=1;entryX=0.971;entryY=0.709;entryDx=0;entryDy=0;entryPerimeter=0;" edge="1" parent="R56lCabFV1OtVi3enDo4-14">
          <mxGeometry relative="1" as="geometry">
            <mxPoint x="577.97" y="140" as="sourcePoint" />
            <mxPoint x="189.99799999999996" y="238.995" as="targetPoint" />
            <Array as="points">
              <mxPoint x="578" y="170" />
              <mxPoint x="398" y="170" />
              <mxPoint x="398" y="239" />
            </Array>
          </mxGeometry>
        </mxCell>
        <mxCell id="R56lCabFV1OtVi3enDo4-28" value="&lt;div&gt;Configurable Broadcast Logic&lt;/div&gt;&lt;div&gt;Weighted Selection&lt;/div&gt;&lt;div&gt;Re-broadcast Fallback&lt;/div&gt;" style="edgeLabel;html=1;align=center;verticalAlign=middle;resizable=0;points=[];" vertex="1" connectable="0" parent="R56lCabFV1OtVi3enDo4-21">
          <mxGeometry x="-0.0383" y="3" relative="1" as="geometry">
            <mxPoint y="5" as="offset" />
          </mxGeometry>
        </mxCell>
        <mxCell id="R56lCabFV1OtVi3enDo4-19" value="Backend &amp;amp; Integration" style="swimlane;whiteSpace=wrap;html=1;" vertex="1" parent="1">
          <mxGeometry x="525" y="120" width="200" height="200" as="geometry" />
        </mxCell>
        <mxCell id="R56lCabFV1OtVi3enDo4-20" value="Integration Layer: API Gateway" style="aspect=fixed;sketch=0;html=1;dashed=0;whitespace=wrap;verticalLabelPosition=bottom;verticalAlign=top;fillColor=#2875E2;strokeColor=#ffffff;points=[[0.005,0.63,0],[0.1,0.2,0],[0.9,0.2,0],[0.5,0,0],[0.995,0.63,0],[0.72,0.99,0],[0.5,1,0],[0.28,0.99,0]];shape=mxgraph.kubernetes.icon2;kubernetesLabel=1;prIcon=api" vertex="1" parent="R56lCabFV1OtVi3enDo4-19">
          <mxGeometry x="75" y="76" width="50" height="48" as="geometry" />
        </mxCell>
        <mxCell id="R56lCabFV1OtVi3enDo4-26" style="edgeStyle=orthogonalEdgeStyle;rounded=0;orthogonalLoop=1;jettySize=auto;html=1;entryX=0.944;entryY=0.3;entryDx=0;entryDy=0;entryPerimeter=0;exitX=0.225;exitY=0.134;exitDx=0;exitDy=0;exitPerimeter=0;" edge="1" parent="R56lCabFV1OtVi3enDo4-19" source="R56lCabFV1OtVi3enDo4-20">
          <mxGeometry relative="1" as="geometry">
            <mxPoint x="86" y="80" as="sourcePoint" />
            <mxPoint x="-426.998" y="55" as="targetPoint" />
            <Array as="points">
              <mxPoint x="86" y="55" />
            </Array>
          </mxGeometry>
        </mxCell>
        <mxCell id="R56lCabFV1OtVi3enDo4-24" value="" style="edgeStyle=orthogonalEdgeStyle;rounded=0;orthogonalLoop=1;jettySize=auto;html=1;entryX=-0.049;entryY=0.448;entryDx=0;entryDy=0;entryPerimeter=0;" edge="1" parent="1" source="R56lCabFV1OtVi3enDo4-15" target="R56lCabFV1OtVi3enDo4-20">
          <mxGeometry relative="1" as="geometry">
            <mxPoint x="238" y="185" as="targetPoint" />
            <Array as="points">
              <mxPoint x="89" y="200" />
              <mxPoint x="130" y="200" />
              <mxPoint x="130" y="218" />
            </Array>
          </mxGeometry>
        </mxCell>
        <mxCell id="R56lCabFV1OtVi3enDo4-25" value="&lt;div&gt;React Native&lt;/div&gt;&lt;div&gt;Secure Push&lt;/div&gt;&lt;div&gt;Offline Support&lt;/div&gt;&lt;div&gt;Screenshot Prevention&lt;/div&gt;" style="edgeLabel;html=1;align=center;verticalAlign=middle;resizable=0;points=[];" vertex="1" connectable="0" parent="R56lCabFV1OtVi3enDo4-24">
          <mxGeometry x="-0.0001" relative="1" as="geometry">
            <mxPoint x="61" as="offset" />
          </mxGeometry>
        </mxCell>
        <mxCell id="R56lCabFV1OtVi3enDo4-29" style="edgeStyle=orthogonalEdgeStyle;rounded=0;orthogonalLoop=1;jettySize=auto;html=1;entryX=0.043;entryY=0.82;entryDx=0;entryDy=0;entryPerimeter=0;" edge="1" parent="1" source="R56lCabFV1OtVi3enDo4-18" target="R56lCabFV1OtVi3enDo4-20">
          <mxGeometry relative="1" as="geometry">
            <mxPoint x="240" y="290" as="targetPoint" />
            <Array as="points">
              <mxPoint x="180" y="250" />
              <mxPoint x="580" y="250" />
              <mxPoint x="580" y="235" />
            </Array>
          </mxGeometry>
        </mxCell>
        <mxCell id="R56lCabFV1OtVi3enDo4-31" value="&lt;div&gt;React Frontend&lt;/div&gt;&lt;div&gt;Node.js/NestJS Backend&lt;/div&gt;&lt;div&gt;Admin Dashboards&lt;/div&gt;" style="edgeLabel;html=1;align=center;verticalAlign=middle;resizable=0;points=[];" vertex="1" connectable="0" parent="R56lCabFV1OtVi3enDo4-29">
          <mxGeometry x="-0.3852" y="2" relative="1" as="geometry">
            <mxPoint x="-10" y="12" as="offset" />
          </mxGeometry>
        </mxCell>
        <mxCell id="R56lCabFV1OtVi3enDo4-33" value="Infrastructure" style="swimlane;whiteSpace=wrap;html=1;" vertex="1" parent="1">
          <mxGeometry x="520" y="360" width="250" height="200" as="geometry" />
        </mxCell>
        <mxCell id="R56lCabFV1OtVi3enDo4-34" value="Cloud Infrastructure - AWS/Azure - Singapore" style="sketch=0;html=1;aspect=fixed;strokeColor=none;shadow=0;fillColor=#3B8DF1;verticalAlign=top;labelPosition=center;verticalLabelPosition=bottom;shape=mxgraph.gcp2.cloud_information" vertex="1" parent="R56lCabFV1OtVi3enDo4-33">
          <mxGeometry x="75" y="70" width="100" height="79" as="geometry" />
        </mxCell>
        <mxCell id="R56lCabFV1OtVi3enDo4-42" style="edgeStyle=orthogonalEdgeStyle;rounded=0;orthogonalLoop=1;jettySize=auto;html=1;" edge="1" parent="R56lCabFV1OtVi3enDo4-33">
          <mxGeometry relative="1" as="geometry">
            <mxPoint x="-340" y="310" as="targetPoint" />
            <mxPoint x="120" y="-90" as="sourcePoint" />
            <Array as="points">
              <mxPoint x="120" y="-20" />
              <mxPoint x="-10" y="-20" />
              <mxPoint x="-10" y="100" />
              <mxPoint x="-340" y="100" />
            </Array>
          </mxGeometry>
        </mxCell>
        <mxCell id="R56lCabFV1OtVi3enDo4-36" style="edgeStyle=orthogonalEdgeStyle;rounded=0;orthogonalLoop=1;jettySize=auto;html=1;exitX=0.995;exitY=0.63;exitDx=0;exitDy=0;exitPerimeter=0;" edge="1" parent="1" source="R56lCabFV1OtVi3enDo4-20" target="R56lCabFV1OtVi3enDo4-34">
          <mxGeometry relative="1" as="geometry">
            <mxPoint x="680" y="470" as="targetPoint" />
            <Array as="points">
              <mxPoint x="720" y="226" />
              <mxPoint x="720" y="470" />
            </Array>
          </mxGeometry>
        </mxCell>
        <mxCell id="R56lCabFV1OtVi3enDo4-37" value="REST/GraphQL API" style="edgeLabel;html=1;align=center;verticalAlign=middle;resizable=0;points=[];" vertex="1" connectable="0" parent="R56lCabFV1OtVi3enDo4-36">
          <mxGeometry x="-0.027" y="-1" relative="1" as="geometry">
            <mxPoint y="19" as="offset" />
          </mxGeometry>
        </mxCell>
        <mxCell id="R56lCabFV1OtVi3enDo4-40" value="" style="endArrow=classic;html=1;rounded=0;" edge="1" parent="1">
          <mxGeometry width="50" height="50" relative="1" as="geometry">
            <mxPoint x="160" y="690" as="sourcePoint" />
            <mxPoint x="70" y="220" as="targetPoint" />
            <Array as="points">
              <mxPoint x="70" y="690" />
            </Array>
          </mxGeometry>
        </mxCell>
        <mxCell id="R56lCabFV1OtVi3enDo4-41" value="&lt;div&gt;Configurable Broadcast Logic&lt;/div&gt;&lt;div&gt;Weighted Selection&lt;/div&gt;&lt;div&gt;Re-broadcast Fallback&lt;/div&gt;" style="edgeLabel;html=1;align=center;verticalAlign=middle;resizable=0;points=[];" vertex="1" connectable="0" parent="R56lCabFV1OtVi3enDo4-40">
          <mxGeometry x="-0.0262" relative="1" as="geometry">
            <mxPoint x="10" y="1" as="offset" />
          </mxGeometry>
        </mxCell>
        <mxCell id="R56lCabFV1OtVi3enDo4-43" value="" style="endArrow=classic;html=1;rounded=0;" edge="1" parent="1">
          <mxGeometry width="50" height="50" relative="1" as="geometry">
            <mxPoint x="580" y="480" as="sourcePoint" />
            <mxPoint x="200" y="670" as="targetPoint" />
            <Array as="points">
              <mxPoint x="200" y="480" />
            </Array>
          </mxGeometry>
        </mxCell>
        <mxCell id="R56lCabFV1OtVi3enDo4-44" value="&lt;div&gt;Auto-scaling&lt;/div&gt;&lt;div&gt;High Availability&lt;/div&gt;&lt;div&gt;Encrypted Data (AES-256/TLS 1.2+)&lt;/div&gt;" style="edgeLabel;html=1;align=center;verticalAlign=middle;resizable=0;points=[];" vertex="1" connectable="0" parent="R56lCabFV1OtVi3enDo4-43">
          <mxGeometry x="-0.1149" relative="1" as="geometry">
            <mxPoint x="3" y="10" as="offset" />
          </mxGeometry>
        </mxCell>
        <mxCell id="R56lCabFV1OtVi3enDo4-46" value="" style="endArrow=classic;html=1;rounded=0;" edge="1" parent="1">
          <mxGeometry width="50" height="50" relative="1" as="geometry">
            <mxPoint x="650" y="530" as="sourcePoint" />
            <mxPoint x="650" y="640" as="targetPoint" />
          </mxGeometry>
        </mxCell>
      </root>
    </mxGraphModel>
  </diagram>
</mxfile>
